# xmcd CD database file
#
# Track frame offsets:
#	150
#	29000
#	56569
#	94430
#	114257
#	143635
#	165861
#	191663
#	222164
#
# Disc length: 3983 seconds
#
# Revision: 0
# Processed by: cddbd v1.5.1PL0 Copyright (c) Steve Scherf et al.
# Submitted via: CDex 1.50
#
DISCID=790f8d09
DTITLE=Rich Goodhart - The Gathering Sun
DYEAR=1999
DGENRE=New Age
TTITLE0=Secrets of the Sunrise
TTITLE1=Octave Eyes
TTITLE2=Images of Light
TTITLE3=Lingering
TTITLE4=What Shall We Do?
TTITLE5=Dearest Sister
TTITLE6=Soul Feverwise
TTITLE7=Cast Your Dancing Spell
TTITLE8=The Blessed Tears of Understanding
EXTD=YEAR: 1999
EXTT0=
EXTT1=
EXTT2=
EXTT3=
EXTT4=
EXTT5=
EXTT6=
EXTT7=
EXTT8=
PLAYORDER=
